<svg xmlns="http://www.w3.org/2000/svg" version="1.1" xmlns:xlink="http://www.w3.org/1999/xlink" xmlns:svgjs="http://svgjs.dev/svgjs" width="100%" height="100%" viewBox="0 0 1000 600"><rect width="1000" height="600" x="0" y="0" fill="#555555"/><g><circle r="166.66666666666666" cx="344.6457163492839" cy="366.8679320083062" fill="#f7f7f9" transform="matrix(0.7023300347598498,0,0,0.7023300347598498,0,42.33765024374098)"/><path d="M303.82004186900417 293.9443281522398L303.82004186900417 293.9443281522398Q307.53412577676556 293.9443281522398 312.09630758472446 294.55846801100347Q316.6877341478625 295.17260786976715 321.1621816902837 296.6056008735491Q325.63662923270493 298.0385938773311 329.438447406004 300.3489295364898Q333.24026557930307 302.6592651956484 335.2873984418487 306.16863581715523L335.2873984418487 306.16863581715523Q337.8609368976204 308.0110553934463 339.90806976016603 311.60816028049084L339.90806976016603 311.60816028049084Q341.7797340916363 315.5269574745068 341.7797340916363 319.0070833408344L341.7797340916363 319.0070833408344Q341.7797340916363 322.92588053485036 340.3759858430336 326.23053787010264Q339.0014823496101 329.5059504501756 336.8373704663476 332.167223171485Q334.673258583085 334.85774064797357 332.1582096376718 336.90487351051917Q329.64316069225856 338.9520063730649 327.27433552274147 340.3557546216676Q324.9055103532243 341.7302581150911 323.1508250424709 342.4613769945717Q321.42538448689675 343.1924958740522 320.8989788936707 343.1924958740522L320.8989788936707 343.1924958740522Q320.3725733004447 343.1924958740522 319.20278309327574 342.66609028082627Q318.0329928861068 342.1396846876002 316.89244743411706 341.4378105632989L316.89244743411706 341.4378105632989Q315.5471886958728 340.7066916838183 313.99721667137396 339.6831252525455L313.99721667137396 339.6831252525455Q313.99721667137396 339.59539098700776 315.95661526838194 338.454845535018Q317.9160138653899 337.3143000830283 320.3433285452655 334.9454749135112Q322.7413984699618 332.6058944991733 324.70079706696976 328.74558681551576Q326.6601956639778 324.88527913185834 326.6601956639778 319.211796627089L326.6601956639778 319.211796627089Q325.7243634982426 317.3693770507978 324.0866572082061 315.67318125040293Q322.44895091816954 313.97698545000793 319.8754124623979 312.69021622212205Q317.30187400662624 311.4034469942362 313.64627960922326 310.584593849218Q309.99068521182033 309.76574070419974 304.96058732099385 309.76574070419974L304.96058732099385 309.76574070419974Q303.20590201024044 309.76574070419974 299.608797123196 310.29214629742575Q296.0116922361515 310.78930713547254 291.30328665229644 312.13456587371684Q286.56563631326225 313.47982461196113 281.06762233956823 315.79016027111976Q275.5696083658742 318.10049593027844 270.0715943921802 321.84382459321904Q264.5443356633069 325.58715325615964 259.455748262122 330.9096986987784Q254.3671608609371 336.20299938621787 250.4776084221004 343.33871964994836Q246.5588112280844 350.47443991367896 244.24847556892576 359.7450273054928Q241.9381399097671 368.9863699421274 241.9381399097671 380.71351676899604L241.9381399097671 380.71351676899604Q241.9381399097671 387.0888733980668 242.96170634103993 392.26519506478945Q243.98527277231273 397.4707614866912 245.6814685727077 401.6235167221409Q247.37766437310268 405.80551671276993 249.65875527708212 409.02243978248447Q251.91060142588233 412.2686076073783 254.3671608609371 414.84214606315L254.3671608609371 414.84214606315Q255.91713288543596 415.6609992081682 257.8765314824439 416.9477684360541Q259.8359300794519 418.2345376639399 263.16983216988336 419.4043278711088Q266.50373426031484 420.60336283345697 271.7677901925751 421.48070548883373Q277.00260136965613 422.3580481442105 285.13264330948033 422.3580481442105L285.13264330948033 422.3580481442105Q292.12213979731473 422.3580481442105 298.43900691602704 420.6910970989947Q304.7558740347393 419.0533908089582 310.2538880084333 416.47985235318646Q315.7519019821274 413.9063138974148 320.3725733004447 410.7771250932379Q325.02248937394126 407.64793628906097 328.5611047506273 404.6064817504218Q332.09972012731333 401.5650272117825 334.4685452968304 399.04997826636924Q336.8373704663476 396.534929320956 337.7732026320827 395.218915337891L337.7732026320827 395.218915337891Q339.70335647391147 392.5283978614024 340.55145437410897 391.7680342267426Q341.3703075191272 390.97842583690357 341.9844473778909 390.97842583690357L341.9844473778909 390.97842583690357Q342.4816082159377 390.97842583690357 342.9495242988053 391.0954048576205Q343.41744038167286 391.1831391231581 343.9438459748989 391.1831391231581L343.9438459748989 391.1831391231581Q344.85043338545483 391.1831391231581 345.0551466717094 390.27655171260227Q345.25985995796395 389.3407195468671 345.5815522649354 389.3407195468671L345.5815522649354 389.3407195468671Q345.78626555118996 389.3407195468671 345.87399981672763 390.15957269188533Q345.9909788374445 390.97842583690357 345.9909788374445 392.1189712888933L345.9909788374445 392.1189712888933Q345.9909788374445 392.733111147657 345.87399981672763 393.28876149606225Q345.78626555118996 393.8736565996467 345.78626555118996 394.37081743769346L345.78626555118996 394.37081743769346Q345.6692865304731 394.98495729645714 344.90892289581325 398.5528174283225Q344.1485592611535 402.09143280500854 342.01369213307015 406.9753069199389Q339.90806976016603 411.8591810348692 336.10625158686696 417.41568451892164Q332.3044334135679 422.9721880029742 326.3092586018271 427.68059358682916Q320.28483903490707 432.41824392586335 311.6576362570361 435.51818797486106Q303.0011887239859 438.58888726867957 291.30328665229644 438.58888726867957L291.30328665229644 438.58888726867957Q284.19681114374515 438.58888726867957 278.1723915768251 437.3021180407937Q272.17721676508427 436.0153488129078 267.3810769156916 434.11443972625835Q262.61418182147816 432.2135306396088 258.90009791371676 429.9031949804501Q255.21525876113458 427.5928593212914 252.7294545709006 425.54572645874583L252.7294545709006 425.54572645874583Q247.49464339381956 422.56276143046506 242.6692587892477 417.9128453569685Q237.81462942949656 413.2921740386511 234.1297902769144 406.8290831440427Q230.415706369153 400.3367474942551 228.22234973071124 391.7680342267426Q225.99974833709024 383.1700762040509 225.99974833709024 372.29102727737967L225.99974833709024 372.29102727737967Q225.99974833709024 361.3827335955294 228.8949790998334 351.2932930586972Q231.76096510739728 341.23309727704435 236.9665315292991 332.4889154784565Q242.14285319602166 323.7447336798686 249.33706297011065 316.6675029264965Q256.53127274419967 309.5610274179452 265.1877202772498 304.5309295271187Q273.8149230551208 299.471586881113 283.6411607953399 296.722579894266Q293.43815378037976 293.9443281522398 303.82004186900417 293.9443281522398ZM463.2916918613102 434.78706909538045L463.2916918613102 434.78706909538045Q463.2916918613102 435.6059222403987 462.2681254300374 435.6644117507572Q461.2445589987646 435.7229012611156 460.10401354677487 435.7229012611156L460.10401354677487 435.7229012611156Q459.6068527087281 435.81063552665324 459.08044711550207 435.9276145473702L459.08044711550207 435.9276145473702Q458.554041522276 436.13232783362474 457.9983911738708 436.2785516095209Q457.44274082546553 436.4247753854169 456.91633523223953 436.951180978643L456.91633523223953 436.951180978643Q457.12104851849404 437.9747474099158 457.0625590081356 438.53039775832104Q457.03331425295636 439.1152928619055 457.03331425295636 439.4077404136978L457.03331425295636 439.4077404136978L456.91633523223953 439.8171669862069Q456.62388768044724 440.22659355871605 455.6880555147121 440.489796355329Q454.752223348977 440.7529991519421 453.72865691770414 440.7529991519421L453.72865691770414 440.7529991519421Q453.5239436314496 440.7529991519421 453.11451705894046 440.63602013122517L453.11451705894046 440.63602013122517Q452.41264293463905 440.4313068449706 451.6815240551585 439.61245369995237L451.6815240551585 439.61245369995237Q449.9268387444051 439.1152928619055 447.558013574888 438.58888726867957L447.558013574888 438.58888726867957Q446.32973385736057 438.2964397168873 444.89674085357865 437.9747474099158L444.89674085357865 437.9747474099158Q443.75619540158897 437.6530551029444 442.9373422565706 436.3370411198793Q442.1184891115524 434.991782381635 441.44585974243023 433.2078523157024Q440.77323037330814 431.39467749459055 440.2175800249029 429.493768407941Q439.66192967649755 427.5928593212914 439.25250310398843 426.1598663175095L439.25250310398843 426.1598663175095L429.1630625671564 394.37081743769346Q426.9112164183561 394.37081743769346 423.4603353072078 394.429306948052Q420.0094541960594 394.4877964584104 416.09065700204343 394.5462859687688Q412.2011045632067 394.57553072394813 408.1945731036531 394.7509992550234Q404.1880416440994 394.8972230309195 400.88338430884716 394.98495729645714L400.88338430884716 394.98495729645714L380.324321417853 396.03776848290926L368.3047270391921 427.4758803005745Q367.9830347322207 428.00228589380055 367.4273843838154 429.5522579182994Q366.87173403541016 431.07298518761905 366.2283494214672 432.76918098801406Q365.61420956270354 434.46537678840895 365.11704872465674 435.9568593025494Q364.59064313143074 437.44834181668983 364.50290886589306 437.7700341236612L364.50290886589306 437.7700341236612Q364.2981955796385 438.58888726867957 363.24538439318644 438.79360055493413Q362.2218179619136 438.9983138411887 361.51994383761223 439.20302712744325L361.51994383761223 439.20302712744325Q360.90580397884855 439.4077404136978 360.49637740633943 440.3435725794329Q360.05770607865105 441.27940474516805 359.2388529336328 441.57185229696034L359.2388529336328 441.57185229696034Q358.4199997886146 442.0982578901863 357.19172007108716 441.6888313176773Q355.96344035355975 441.27940474516805 355.0276081878246 440.3435725794329L355.0276081878246 440.3435725794329Q354.20875504280633 439.3200061481601 354.4134683290609 437.7115446133028Q354.61818161531545 436.13232783362474 354.61818161531545 434.3776425228713L354.61818161531545 434.3776425228713Q354.61818161531545 432.6229572121179 354.55969210495704 431.07298518761905Q354.53044734977783 429.5522579182994 355.0276081878246 428.1192649145175L355.0276081878246 428.1192649145175Q355.2323214740792 427.4758803005745 356.31437741571045 424.25895723085995Q357.3964333573417 421.0127894059661 359.03413964737825 416.45060759800725Q360.701090692594 411.8591810348692 362.63124453442276 406.4489013267128Q364.59064313143074 401.06786637373574 366.6377759939764 396.03776848290926L366.6377759939764 396.03776848290926Q364.7953564176853 396.03776848290926 364.09348229338394 394.98495729645714L364.09348229338394 394.98495729645714Q363.5670767001579 394.1661041514389 362.8359578206773 394.01988037554287Q362.13408369637597 393.8736565996467 361.3152305513577 393.5519642926752L361.3152305513577 393.5519642926752Q360.49637740633943 393.34725100642066 360.174685099368 392.64537688211925Q359.8529927923965 391.91425800263875 360.05770607865105 391.3878524094127L360.05770607865105 391.3878524094127Q360.2916641200849 390.773712550649 359.7652585268589 390.3642859781399Q359.2388529336328 389.95485940563077 359.2388529336328 388.52186640184874L359.2388529336328 388.52186640184874Q359.2388529336328 387.90772654308506 360.2331746097264 387.3520761946799Q361.1982515306408 386.7671810910953 362.63124453442276 386.3577545185862Q364.09348229338394 385.9483279460771 365.87741235931657 385.6558803942849Q367.6905871804284 385.3341880873134 369.3282934704649 385.12947480105885L369.3282934704649 385.12947480105885Q369.62074102225716 385.12947480105885 370.08865710512475 385.12947480105885Q370.55657318799234 385.12947480105885 371.08297878121834 384.9247615148043L371.08297878121834 384.9247615148043Q373.33482493001856 379.4852370514687 376.2008109375825 373.1391251775772Q379.09604170032566 366.82225805886486 382.13749623896484 360.24218814353964Q385.1497060224249 353.6621182282143 388.24965007142254 347.08204831288896Q391.32034936524104 340.50197839756373 394.09860110726726 334.7115168720774Q396.8768528492936 328.8918105914119 399.18718850845215 324.0664259868401Q401.49752416761083 319.211796627089 403.0474961921097 316.0241183125536L403.0474961921097 316.0241183125536Q401.81921647458233 312.2223001392545 400.82489479848874 309.0346218247191Q399.85981787757436 305.8469435101838 399.12869899809374 303.5073630958459Q398.42682487379244 301.1385379263288 398.01739830128327 299.73478967772604Q397.6079717287741 298.36028618430254 397.6079717287741 298.155572898048L397.6079717287741 298.155572898048Q397.49099270805726 297.9508596117934 397.6079717287741 297.7461463255388L397.6079717287741 297.7461463255388Q397.8126850150287 297.21974073231286 398.631538160047 297.1320064667751L398.631538160047 297.1320064667751Q397.8126850150287 295.5820344422763 397.8126850150287 294.85091556279576L397.8126850150287 294.85091556279576Q397.8126850150287 294.4414889902866 398.01739830128327 294.3537547247489L398.01739830128327 294.3537547247489Q398.2221115875378 294.14904143849435 399.0409647325561 293.9443281522398Q399.85981787757436 293.73961486598523 400.79565004330954 293.5641463349099Q401.7022374538654 293.41792255901373 402.5210905988837 293.3594330486553Q403.3691884990812 293.3301882934761 403.66163605087337 293.3301882934761L403.66163605087337 293.3301882934761Q403.7786150715903 293.3301882934761 404.1880416440994 293.41792255901373L404.1880416440994 293.41792255901373Q404.8021815028631 293.6226358452683 405.91348219967364 294.3537547247489L405.91348219967364 294.3537547247489Q406.03046122039046 293.8273491315229 406.1766849962866 293.6226358452683Q406.35215352736196 293.41792255901373 406.5568668136165 293.2132092727592L406.5568668136165 293.2132092727592L406.84931436540876 292.8915169657878Q407.4634542241725 292.5990694139955 408.1945731036531 292.74529318989164Q408.8964472279544 292.8915169657878 409.5105870867181 292.8915169657878L409.5105870867181 292.8915169657878Q410.15397170066103 292.8915169657878 410.38792974209485 292.39435612774093Q410.6511325387078 291.8679505345149 411.6746989699806 291.8679505345149L411.6746989699806 291.8679505345149Q413.0199577082249 291.8679505345149 413.9557898739601 294.76318129725803L413.9557898739601 294.76318129725803Q414.0435241394978 295.2603421353049 415.388782877742 298.62348898091557Q416.73404161598637 301.95739107134705 418.781174478532 307.3384260243242Q420.8283073410776 312.7487057324806 423.5480695727454 319.85518124103186Q426.2970765595924 326.93241199440394 429.250796832694 334.916230158332Q432.2337618609748 342.8708035670808 435.27521639961407 351.3517825690556Q438.3166709382533 359.8327615710305 441.0949226802796 368.05053777639233L441.0949226802796 368.05053777639233Q446.8561394505866 384.80778249408735 450.7456918894233 396.33021603470144Q454.6644890834393 407.8526495753155 457.0625590081356 415.1638383701215Q459.4898736880112 422.4457824097481 460.68890865035934 426.04288729679257Q461.8586988575283 429.63999218383714 462.1511464093206 430.37111106331764L462.1511464093206 430.37111106331764Q462.6775520025466 432.00881735335423 462.999244309518 433.0031390294478Q463.2916918613102 433.9682159503622 463.2916918613102 434.78706909538045ZM425.15653110760275 382.35122305903263L418.9858877647866 364.45343288934777Q416.3246150434772 356.84979654274963 413.16618148412107 347.40374061986046Q410.03699267994415 337.9284399417921 407.0540276516634 328.68709730515735L407.0540276516634 328.68709730515735Q405.29934234090996 333.220034357937 402.84278290585513 339.59539098700776Q400.3862234708004 345.97074761607854 397.63721648395335 352.7555308176583Q394.91745425228555 359.5403140192382 392.3439157965139 366.0034049138466Q389.7703773407422 372.49574056363423 387.8402234989134 377.1164118819516L387.8402234989134 377.1164118819516L384.9449927361703 383.9011950835315L403.4569227646188 382.76064963154175Q405.82574793413596 382.76064963154175 409.10116051420897 382.672915366004L409.10116051420897 382.672915366004Q414.65766399826146 382.5559363452872 425.15653110760275 382.35122305903263L425.15653110760275 382.35122305903263Z " fill="#0000ff" transform="matrix(0.7023300347598498,0,0,0.7023300347598498,0,42.33765024374098)"/><path d="M650.575184559467 295.3499687929782L650.575184559467 295.3499687929782Q653.2444978883218 295.3499687929782 656.5233394576237 295.79135131192265Q659.8231992421134 296.2327338308672 663.0389861658518 297.262626375071Q666.2547730895902 298.2925189192748 668.9871410640085 299.9529579191136Q671.7195090384267 301.6133969189524 673.1907841015751 304.13558274149227L673.1907841015751 304.13558274149227Q675.0403870381043 305.4597302983258 676.5116621012527 308.0449707664292L676.5116621012527 308.0449707664292Q677.8568278732739 310.8614116015988 677.8568278732739 313.3625792089509L677.8568278732739 313.3625792089509Q677.8568278732739 316.1790200441205 676.847953544258 318.5540783603456Q675.8600974304298 320.9081184613828 674.3047495065301 322.82077604347563Q672.7494015826306 324.7544518407562 670.9418350764769 326.22572690390456Q669.1342685703233 327.6970019670528 667.4317931401089 328.70587629606877Q665.7293177098944 329.6937324098969 664.4682247986244 330.2191877895927Q663.2281501025424 330.7446431692886 662.8498222291613 330.7446431692886L662.8498222291613 330.7446431692886Q662.4714943557804 330.7446431692886 661.630765748267 330.36631529590755Q660.7900371407537 329.9879874225266 659.9703267484282 329.4835502580186L659.9703267484282 329.4835502580186Q659.0034888497879 328.9580948783228 657.8895234448328 328.2224573467486L657.8895234448328 328.2224573467486Q657.8895234448328 328.1594027011851 659.2977438624176 327.3396923088597Q660.7059642800024 326.51998191653416 662.4504761405925 324.8175064863197Q664.1739697859948 323.1360492712931 665.5821902035797 320.36164486649915Q666.9904106211644 317.5872404617053 666.9904106211644 313.50970671526574L666.9904106211644 313.50970671526574Q666.3178277351537 312.1855591584322 665.1408076846351 310.96650267753796Q663.9637876341166 309.74744619664364 662.1141846975872 308.82264472837903Q660.2645817610579 307.8978432601143 657.6373048625788 307.30933323485505Q655.0100279640998 306.7208232095957 651.3948949517925 306.7208232095957L651.3948949517925 306.7208232095957Q650.1338020405225 306.7208232095957 647.5485615724191 307.09915108297673Q644.9633211043157 307.45646074116985 641.5793884590746 308.4232986398102Q638.1744375986457 309.3901365384505 634.2230131433331 311.0505755382893Q630.2715886880206 312.71101453812804 626.320164232708 315.4013460821706Q622.3477215622075 318.09167762621325 618.6905521195247 321.9169927903988Q615.0333826768418 325.7212897393966 612.2379600568601 330.8497342452277Q609.4215192216905 335.9781787510589 607.7610802218517 342.6409529656019Q606.1006412220129 349.28270896495707 606.1006412220129 357.71101325527803L606.1006412220129 357.71101325527803Q606.1006412220129 362.2929841662256 606.836278753587 366.013208254472Q607.5719162851611 369.7544505579062 608.7909727660555 372.7390371145785Q610.0100292469498 375.7446418864385 611.6494500316007 378.0566455571001Q613.2678526010639 380.3896674429496 615.0333826768418 382.2392703794788L615.0333826768418 382.2392703794788Q616.147348081797 382.8277804047381 617.5555684993818 383.75258187300284Q618.9637889169666 384.67738334126744 621.3598654483795 385.5181119487808Q623.7559419797924 386.3798587714819 627.5392207136023 387.0104052271169Q631.3014812322243 387.6409516827519 637.1445450544419 387.6409516827519L637.1445450544419 387.6409516827519Q642.1678984843339 387.6409516827519 646.7078329649058 386.4429134170454Q651.2477674454777 385.26589336652677 655.1991919007902 383.41629042999745Q659.1506163561028 381.56668749346824 662.4714943557804 379.3177384683701Q665.8133905706458 377.068789443272 668.3565946083735 374.8828950637374Q670.8997986461013 372.6970006842028 672.6022740763157 370.88943417804916Q674.3047495065301 369.0818676718955 674.9773323925409 368.13604798844307L674.9773323925409 368.13604798844307Q676.3645345949378 366.2023721911624 676.974062835385 365.65589859627875Q677.5625728606443 365.08840678620726 678.0039553795888 365.08840678620726L678.0039553795888 365.08840678620726Q678.3612650377819 365.08840678620726 678.6975564807873 365.1724796469586Q679.0338479237926 365.2355342925221 679.4121757971735 365.2355342925221L679.4121757971735 365.2355342925221Q680.0637404679964 365.2355342925221 680.2108679743112 364.5839696216994Q680.3579954806261 363.9113867356887 680.5891958476922 363.9113867356887L680.5891958476922 363.9113867356887Q680.736323354007 363.9113867356887 680.7993779995705 364.49989676094805Q680.8834508603219 365.08840678620726 680.8834508603219 365.9081171785328L680.8834508603219 365.9081171785328Q680.8834508603219 366.34949969747726 680.7993779995705 366.74884578604605Q680.736323354007 367.1692100898028 680.736323354007 367.5265197479959L680.736323354007 367.5265197479959Q680.6522504932557 367.96790226694037 680.105776898372 370.53212451985604Q679.5593033034884 373.07532855758376 678.0249735947766 376.58537049395187Q676.5116621012527 380.09541243031987 673.7792941268343 384.0888733160081Q671.0469261524162 388.08233420169637 666.7381920389104 391.46626684693746Q662.4084397102168 394.8712177073664 656.2080662298061 397.09914851727655Q649.9866745342077 399.3060611119991 641.5793884590746 399.3060611119991L641.5793884590746 399.3060611119991Q636.4719621684312 399.3060611119991 632.1422098397377 398.3812596437344Q627.833475726232 397.4564581754698 624.3864884354274 396.0902741882606Q620.9605193598106 394.7240902010515 618.2912060309559 393.06365120121274Q615.642910917289 391.40321220137395 613.8563626263232 389.9319371382257L613.8563626263232 389.9319371382257Q610.0941021077011 387.78807918906665 606.6260966017087 384.44618297420124Q603.1370728805285 381.12530497452366 600.4887777668615 376.4802794180127Q597.8194644380068 371.81423564631376 596.2430982989193 365.65589859627875Q594.645713944644 359.476543331056 594.645713944644 351.6577672811822L594.645713944644 351.6577672811822Q594.645713944644 343.81797301612056 596.7265172482395 336.56668877631824Q598.786302336647 329.33642275170376 602.5275446400814 323.05197641054184Q606.2477687283277 316.7675300693798 611.4182496645345 311.68112199392425Q616.5887306007414 306.5736957032809 622.81012229634 302.9585626909736Q629.0104957767506 299.3224114634786 636.0726160798624 297.3466992358223Q643.1137181677864 295.3499687929782 650.575184559467 295.3499687929782ZM741.1006373734627 367.5265197479959L741.1006373734627 367.5265197479959Q741.1006373734627 375.30325936749404 738.8516883483646 381.5036328479047Q736.6027393232665 387.7040063283154 732.7143695135175 392.0757950873846Q728.8259997037684 396.426565631266 723.7395916283128 398.8016239474911Q718.6321653376696 401.1556640485283 712.9572472369547 401.1556640485283L712.9572472369547 401.1556640485283Q710.5821889207295 401.1556640485283 707.7867663007478 400.60919045364466Q704.9703254655782 400.04169864357317 702.1538846304086 398.8016239474911Q699.3584620104268 397.5405310362211 696.6891486815721 395.4597277326257Q694.0408535679052 393.399942644218 691.9600502643098 390.37331965717016Q689.9002651759021 387.3466966701222 688.6812086950077 383.2691629236827Q687.4621522141135 379.21264739243094 687.525206859677 373.8950389499093L687.525206859677 373.8950389499093Q687.525206859677 367.8207747606256 689.0175001380131 362.83945776110926Q690.4887752011614 357.8581407615929 692.8217970870109 353.9067163062803Q695.1338007576725 349.95529185096774 698.0973690991569 347.0757963702346Q701.0609374406413 344.1752826743137 704.0034875669379 342.2205886618453Q706.9670559084224 340.2658946493768 709.6994238828406 339.2990567507365Q712.4317918572589 338.35323706728406 714.4285223001029 338.2061095609692L714.4285223001029 338.2061095609692Q715.4584148443067 338.12203670021785 715.3533237683675 338.41629171284757Q715.2482326924285 338.7105467254772 714.8068501734839 339.08887459885824Q714.3444494393516 339.44618425705136 714.0291762115341 339.8245121304323Q713.6928847685288 340.2028400038134 714.2813947937881 340.2658946493768L714.2813947937881 340.2658946493768Q714.8068501734839 340.41302215569164 715.1221234013015 340.5601496620065Q715.4584148443067 340.70727716832135 715.8367427176878 340.93847753538745L715.8367427176878 340.93847753538745L716.425252742947 340.2658946493768Q716.9296899074551 339.90858499118366 717.4131088567752 339.90858499118366Q717.8965278060954 339.90858499118366 718.2748556794763 340.01367606712284Q718.6321653376696 340.11876714306203 718.8633657047357 340.11876714306203Q719.073547856614 340.11876714306203 719.1576207173654 339.67738462411745L719.1576207173654 339.67738462411745Q719.3047482236801 338.85767423179203 719.7040943122489 338.75258315585285Q720.1244586160057 338.64749207991366 721.5957336791539 338.64749207991366L721.5957336791539 338.64749207991366Q722.478498717043 338.64749207991366 724.2860652231965 339.15192924442164Q726.0936317293501 339.67738462411745 728.2795261088847 340.93847753538745Q730.4654204884193 342.19957044665745 732.7143695135175 344.3013919654407Q734.9633185386156 346.40321348422395 736.8549579055206 349.61900040796235Q738.7465972724254 352.83478733170085 739.9236173229441 357.26963073633357Q741.1006373734627 361.7044741409663 741.1006373734627 367.5265197479959ZM714.4285223001029 345.87775810452814L714.4285223001029 345.87775810452814Q711.8432818319995 347.43310602842774 709.3210960094596 350.1024193572826Q706.8199284021075 352.7507144709495 704.7811615288878 356.23973819212966Q702.7423946556679 359.7077436981221 701.5023199595857 363.99545959644007Q700.2412270483159 368.2831754947579 700.2412270483159 373.01227391202025L700.2412270483159 373.01227391202025Q700.2412270483159 378.0986819874758 701.1660285165805 382.2392703794788Q702.0908299848451 386.3798587714819 703.856360060623 389.3013906825907Q705.6429083515889 392.22292259369937 708.1861123893166 393.7992887327868Q710.7293164270444 395.3966730870622 713.9871397811585 395.3966730870622L713.9871397811585 395.3966730870622Q716.8666352618916 395.3966730870622 719.7040943122489 393.75725230241125Q722.5625715777943 392.13884973294813 724.7694841725166 388.88102637883395Q726.9974149824269 385.6442212399077 728.3635989696361 380.83104996189405Q729.7297829568452 376.0388968990682 729.7297829568452 369.67037769715483L729.7297829568452 369.67037769715483Q729.7297829568452 363.23880384967805 728.0273075266308 358.8880333057967Q726.3248320964163 354.5372627619153 724.223010577633 351.8259130026848Q722.1211890588497 349.1355814586422 720.187513261569 348.00059783849923Q718.2748556794763 346.8445960031684 717.8334731605319 346.8445960031684L717.8334731605319 346.8445960031684Q716.7825624011402 346.8445960031684 716.2360888062566 346.8445960031684Q715.6896152113729 346.8445960031684 714.4285223001029 345.87775810452814ZM796.9670533427222 395.54380059337694L796.9670533427222 395.54380059337694Q796.9670533427222 396.426565631266 796.3365068870872 397.49849460584545Q795.7059604314522 398.5704235804249 794.5289403809336 398.5704235804249L794.5289403809336 398.5704235804249Q793.8563574949229 398.5704235804249 793.4990478367298 398.19209570704396Q793.1207199633488 397.83478604885073 792.7423920899678 397.83478604885073L792.7423920899678 397.83478604885073Q792.2379549254598 397.83478604885073 791.7545359761397 398.19209570704396Q791.2711170268195 398.5704235804249 790.1571516218644 398.5704235804249L790.1571516218644 398.5704235804249Q788.6858765587161 398.5704235804249 787.6139475841366 397.49849460584545Q786.5420186095572 396.426565631266 785.8904539387344 394.7661266314272Q785.2178710527237 393.1056876315884 784.8815796097184 391.1509936191199Q784.545288166713 389.17528139146367 784.545288166713 387.49382417643704L784.545288166713 387.49382417643704Q784.545288166713 384.15192796157163 784.8185249641549 379.90624849362945Q785.0707435464088 375.66056902568715 785.4070349894142 371.18368919067876Q785.7433264324195 366.7278275708583 785.9955450146736 362.2929841662256Q786.2477635969275 357.8581407615929 786.2477635969275 354.09588024297074L786.2477635969275 354.09588024297074Q786.2477635969275 349.051508597891 785.5751807109168 346.2560859779092Q784.9236160400941 343.4396451427396 783.2211406098796 343.4396451427396L783.2211406098796 343.4396451427396Q781.6027380404165 343.6708455098057 779.900262610202 346.2560859779092Q778.1977871799876 348.8413264460126 776.4322571042096 352.8768237620765Q774.6457088132438 356.8913028629525 772.9432333830293 361.9566927232202Q771.2407579528149 367.02208258348793 769.6643918137274 372.2976545956339Q768.0670074594522 377.5942448229678 766.6587870418674 382.5755618224842Q765.2715848394704 387.55687882200056 764.1576194345153 391.46626684693746Q763.0436540295601 395.3966730870622 762.2449618524225 397.79274961847506Q761.425251460097 400.18882614988803 761.1309964474673 400.18882614988803L761.1309964474673 400.18882614988803Q760.5424864222081 400.18882614988803 760.2482314095784 399.936607567634Q759.9539763969487 399.68438898538005 759.6807395995069 399.39013397275033Q759.4285210172528 399.09587896012073 759.050193143872 398.82264216267885Q758.6928834856787 398.5704235804249 757.9572459541046 398.5704235804249L757.9572459541046 398.5704235804249Q757.2846630680939 398.5704235804249 757.0534627010278 398.7175510867398Q756.8432805491494 398.8646785930545 756.5490255365198 399.09587896012073Q756.2547705238901 399.3060611119991 755.8133880049456 399.45318861831385Q755.3720054860012 399.6003161246287 754.258040081046 399.6003161246287L754.258040081046 399.6003161246287Q752.9338925242125 399.6003161246287 751.630763182567 398.94875145380587Q750.3486520561091 398.2761685677952 750.3486520561091 396.86794815021045L750.3486520561091 396.86794815021045Q750.3486520561091 395.9851831123215 750.6429070687389 393.2107787075276Q750.9371620813685 390.43637430273367 751.3365081699372 386.4218952018576Q751.7358542585062 382.38639788579366 752.2192732078263 377.4050808862773Q752.7026921571464 372.4027456715731 753.1020382457152 367.08513722905144Q753.5224025494718 361.7675287865297 753.8166575621016 356.44992034400804Q754.1109125747312 351.1323119014864 754.1109125747312 346.3191406234726L754.1109125747312 346.3191406234726Q754.1109125747312 343.9651005224354 754.0268397139799 341.92633364921556Q753.9637850684164 339.90858499118366 753.9637850684164 338.05898205465434L753.9637850684164 338.05898205465434Q753.9637850684164 337.61759953570987 754.4051675873609 337.61759953570987L754.4051675873609 337.61759953570987Q755.2879326252498 337.61759953570987 755.77135157457 337.9328727635274Q756.2547705238901 338.2691642065327 756.4649526757685 338.64749207991366Q756.6961530428347 339.0048017381069 756.7381894732104 339.34109318111217Q756.7592076883981 339.67738462411745 756.8432805491494 339.67738462411745L756.8432805491494 339.67738462411745Q757.0534627010278 339.67738462411745 757.3687359288452 339.4251660418635Q757.662990941475 339.15192924442164 757.9782641692924 338.85767423179203Q758.3145556122978 338.5634192191623 758.6088106249274 338.3112006369084Q758.903065637557 338.05898205465434 759.1342660046232 338.05898205465434L759.1342660046232 338.05898205465434L759.8699035361974 338.05898205465434Q760.9838689411525 338.05898205465434 761.425251460097 337.72269061164906Q761.8666339790415 337.3863991686438 762.055797915732 336.9870530800749Q762.2449618524225 336.56668877631824 762.3080164979859 336.2514155485008Q762.3920893587373 335.9151241054954 762.7493990169304 335.9151241054954L762.7493990169304 335.9151241054954Q762.9805993839966 335.9151241054954 763.3799454725654 336.2514155485008Q763.7792915611343 336.56668877631824 764.1996558648909 337.3443627382681Q764.5990019534597 338.12203670021785 764.8932569660893 339.38312961148785Q765.187511978719 340.64422252275784 765.187511978719 342.4097525985358L765.187511978719 342.4097525985358Q765.187511978719 344.78481091476084 764.9983480420286 348.39994392706814Q764.8302023205259 352.0150769393753 764.556965523084 356.11362890100276Q764.3047469408301 360.2121808626301 764.0735465737639 364.39480568500886Q763.8633644218856 368.57743050738753 763.7792915611343 371.9613631526286L763.7792915611343 371.9613631526286Q764.5990019534597 368.7876126592659 765.7550037887905 364.9202610647047Q766.8899874089335 361.0318912549556 768.4032989024574 357.03843036926736Q769.9166103959814 353.0449694835791 771.7031586869472 349.2406725345814Q773.4686887627253 345.4363755855837 775.5284738511328 342.49382545928705Q777.6092771547283 339.5302571178027 779.900262610202 337.72269061164906Q782.1912480656757 335.9151241054954 784.6924156730279 335.9151241054954L784.6924156730279 335.9151241054954Q788.6858765587161 335.9151241054954 791.2290805964439 337.3863991686438Q793.7933028493594 338.85767423179203 795.2645779125078 341.4429146998954Q796.735852975656 344.02815516799893 797.3033447857275 347.5171788891791Q797.8498183806112 350.98518439517153 797.8498183806112 354.9786452808598L797.8498183806112 354.9786452808598Q797.8498183806112 358.36257792610087 797.5555633679816 362.1038202295351Q797.2613083553518 365.8450625329693 796.9250169123466 369.56528662121565Q796.5887254693413 373.30652892464997 796.3365068870872 376.92166193695715Q796.0842883048332 380.53679494926445 796.0842883048332 383.71054544262716L796.0842883048332 383.71054544262716Q796.0842883048332 387.6409516827519 796.5256708237777 390.77266574573895Q796.9670533427222 393.904379808726 796.9670533427222 395.54380059337694ZM856.4486023242889 340.64422252275784L856.4486023242889 340.64422252275784Q856.6798026913551 341.0856050417023 856.7008209065428 341.5269875606468Q856.7428573369185 341.96837007959124 856.7428573369185 342.55688010485056L856.7428573369185 342.55688010485056Q856.7428573369185 344.9319384210757 854.2627079447543 347.5171788891791Q851.7825585525901 350.1024193572826 846.4649501100683 352.2462773064415L846.4649501100683 352.2462773064415Q845.372002920301 352.687659825386 844.4682196672242 352.687659825386L844.4682196672242 352.687659825386Q843.3752724774569 352.687659825386 842.5975985155072 352.057113369751Q841.8199245535574 351.426566914116 841.8199245535574 350.7539840281053L841.8199245535574 350.7539840281053Q841.8199245535574 350.31260150916086 842.3663981484409 349.72409148390153Q842.9338899585124 349.1355814586422 843.5434181989596 348.5470714333829Q844.1739646545946 347.95856140812356 844.7414564646662 347.43310602842774Q845.2879300595497 346.92866886391977 845.2879300595497 346.6133956361023L845.2879300595497 346.6133956361023Q845.2879300595497 346.024885610843 844.3210921609094 346.024885610843L844.3210921609094 346.024885610843Q842.8498170977612 346.024885610843 840.5588316422874 346.8866324335441Q838.2678461868136 347.72736104105746 835.7246421490858 349.09354502826653Q833.181438111358 350.4597290154757 830.554161212879 352.057113369751Q827.9268843143999 353.63347950883843 825.8460810108044 355.1678092175502Q823.7862959223968 356.68112071107424 822.5041847959391 357.8581407615929Q821.2010554542934 359.0351608121114 821.2010554542934 359.56061619180736L821.2010554542934 359.56061619180736Q821.2010554542934 359.85487120443696 821.7895654795527 359.85487120443696L821.7895654795527 359.85487120443696L823.9334234287116 359.85487120443696Q825.9301538715557 359.85487120443696 829.0618679345429 360.06505335631533Q832.2146002127178 360.2962537233814 835.6826057187102 360.9268001790164Q839.1506112247026 361.5573466346514 842.6606531610706 362.6923302547944Q846.1706950974386 363.8483320901252 848.9450995022327 365.76098967221793Q851.7195039070265 367.67364725431077 853.4850339828046 370.42703344391686Q855.2715822737703 373.1594014183351 855.2715822737703 376.92166193695715L855.2715822737703 376.92166193695715Q855.2715822737703 378.83431951905 854.6410358181353 381.0202138985846Q854.0104893625004 383.2061082781192 852.413105008225 385.4550573032173Q850.8367388691375 387.7040063283154 848.1043708947193 390.03702821416476Q845.372002920301 392.3700501000142 841.1473416675467 394.661035555488L841.1473416675467 394.661035555488Q834.7998406808211 398.0449682007291 829.293068301609 399.68438898538005Q823.7862959223968 401.30279155484317 819.3514525177641 401.30279155484317L819.3514525177641 401.30279155484317Q813.592461556298 401.30279155484317 810.2715835566204 398.7175510867398Q806.929687341755 396.13231061863627 806.929687341755 391.3191393406226L806.929687341755 391.3191393406226Q806.929687341755 387.78807918906665 808.3168895441519 385.26589336652677Q809.6830735313611 382.7647257591746 811.5116582527024 381.10428675933593Q813.3612611892318 379.4228295443093 815.2108641257611 378.6661737975473Q817.0604670622903 377.88849983559743 818.0273049609306 377.8044269748461L818.0273049609306 377.8044269748461Q818.4686874798751 377.8044269748461 818.8049789228804 377.74137232928257Q819.1412703658858 377.65729946853133 819.4985800240789 377.65729946853133L819.4985800240789 377.65729946853133Q820.1711629100896 377.65729946853133 820.1711629100896 378.47700986085675L820.1711629100896 378.47700986085675L820.1711629100896 379.21264739243094Q820.1711629100896 379.6540299113754 820.3813450619679 379.9903213543808Q820.6125454290341 380.3266127973861 820.6125454290341 380.6839224555792L820.6125454290341 380.6839224555792Q820.6125454290341 381.12530497452366 819.5406164544546 382.0080700124127Q818.4686874798751 382.91185326548947 817.2075945686051 384.0888733160081Q815.9465016573351 385.26589336652677 814.8745726827557 386.5900409233603Q813.8026437081762 387.9352066953815 813.8026437081762 389.17528139146367L813.8026437081762 389.17528139146367Q813.8026437081762 390.66757466979976 816.1777020244014 390.66757466979976L816.1777020244014 390.66757466979976Q819.1412703658858 390.66757466979976 822.4201119351877 389.51157283446895Q825.6989535044896 388.376589214326 828.8516857826645 386.5900409233603Q831.9833998456517 384.8245108475823 834.8418771111968 382.5755618224842Q837.6793361615543 380.3266127973861 839.8231941107132 378.18275484822715Q841.9670520598721 376.0388968990682 843.2281449711421 374.1472575321632Q844.4682196672242 372.2556181652582 844.4682196672242 371.16267097549104L844.4682196672242 371.16267097549104Q844.4682196672242 369.8175052034697 842.9549081737002 369.018813026332Q841.4415966801763 368.1991026340066 838.8143197816972 367.67364725431077Q836.208061098406 367.1692100898028 832.7190373772257 366.98004615311226Q829.2510318712333 366.7908822164217 825.4046984918599 366.7908822164217L825.4046984918599 366.7908822164217Q821.4322558213595 366.7908822164217 818.8049789228804 367.1692100898028Q816.1777020244014 367.5265197479959 815.589191999142 367.5265197479959L815.589191999142 367.5265197479959Q815.1478094801976 367.5265197479959 814.1389351511816 367.4214286720567Q813.1510790373534 367.31633759611753 812.1422047083374 366.74884578604605Q811.1543485945093 366.2023721911624 810.4187110629351 365.08840678620726Q809.6830735313611 363.99545959644007 809.6830735313611 361.91465629284454L809.6830735313611 361.91465629284454Q809.6830735313611 360.5064358752598 810.2926017718082 358.7409057994818Q810.9231482274432 356.97537572370385 812.5205325817184 354.9366088504841Q814.1179169359938 352.89784197726436 816.8713031255999 350.54380187622706Q819.6457075303938 348.16874356000193 823.9334234287116 345.58350309189854L823.9334234287116 345.58350309189854Q828.4523396940957 342.8511351174803 832.4037641494083 341.127641472078Q836.3551886047208 339.38312961148785 839.5709755284591 338.41629171284757Q842.7867624521976 337.470472029395 845.2248754139862 337.13418058638973Q847.6629883757748 336.79788914338445 849.0501905781717 336.79788914338445L849.0501905781717 336.79788914338445Q852.3920867930373 336.79788914338445 854.0104893625004 337.6386177508977Q855.6288919319635 338.5003645735989 856.4486023242889 340.64422252275784ZM886.735850409956 311.8282495002391L886.735850409956 311.8282495002391Q886.735850409956 312.2696320191836 886.5887229036412 314.14025317090073Q886.4415953973263 316.0318925378056 886.1893768150723 319.14258838560494Q885.9371582328183 322.2322660182163 885.5588303594374 326.33081797984374Q885.2015207012441 330.4503881566589 884.8231928278632 335.17948657392134L884.8231928278632 335.17948657392134Q889.4682183843742 334.5699583334742 893.6508432067529 334.2546851056566Q897.8334680291317 333.91839366265134 900.7129635098648 333.91839366265134L900.7129635098648 333.91839366265134Q901.679801408505 333.91839366265134 902.4154389400792 334.27570332084446Q903.1510764716534 334.6540311942255 903.6344954209735 335.13745014354566Q904.1179143702936 335.6208690928658 904.4121693829233 336.16734268774945Q904.706424395553 336.7138162826331 904.7694790411164 337.09214415601406L904.7694790411164 337.09214415601406Q904.7694790411164 337.470472029395 904.8535519018678 337.78574525721257Q904.9166065474313 338.12203670021785 904.9166065474313 338.5003645735989L904.9166065474313 338.5003645735989Q904.9166065474313 339.97163963674717 903.6344954209735 341.4429146998954Q902.3313660793278 342.93520797823163 899.7461256112244 343.29251763642475L899.7461256112244 343.29251763642475L884.0034824355376 344.9949930666392Q883.6461727773445 350.31260150916086 883.3519177647148 355.9244649643122Q883.0576627520853 361.5573466346514 882.7844259546434 367.1271736594271Q882.5322073723894 372.6970006842028 882.3850798660745 378.0986819874758Q882.2379523597598 383.5003632907488 882.2379523597598 388.29251635357474L882.2379523597598 388.29251635357474Q882.2379523597598 391.40321220137395 882.3850798660745 393.31586978346667Q882.5322073723894 395.24954558074734 882.5322073723894 395.83805560600666L882.5322073723894 395.83805560600666Q882.5322073723894 397.09914851727655 882.0487884230691 398.31820499817087Q881.565369473749 399.5372614790652 880.9348230181141 400.5251175928933Q880.325294777667 401.5339919219094 879.6106754612806 402.1435201623564Q878.9170743600822 402.7740666179914 878.4756918411376 402.7740666179914L878.4756918411376 402.7740666179914Q875.8063785122829 402.7740666179914 874.2510305883833 401.11362761815263Q872.6956826644836 399.45318861831385 871.9180087025338 396.6577659983322Q871.1613529557718 393.8413251631626 870.9301525887057 390.2261921508553Q870.6989522216396 386.5900409233603 870.6989522216396 382.6806528984234L870.6989522216396 382.6806528984234Q870.6989522216396 373.4536564309647 871.2244076013354 364.16360531794265Q871.7498629810312 354.89457242010843 872.6956826644836 346.3191406234726L872.6956826644836 346.3191406234726L863.468686197025 347.43310602842774Q863.2374858299589 347.43310602842774 863.0273036780806 347.5171788891791Q862.7961033110145 347.5802335347426 862.5018482983847 347.5802335347426L862.5018482983847 347.5802335347426Q861.0936278808 347.5802335347426 860.2528992732867 346.92866886391977Q859.4121706657734 346.2560859779092 858.9497699316411 345.37332094002016Q858.5083874126966 344.49055590213123 858.4032963367573 343.5657544338665Q858.2982052608182 342.6409529656019 858.2982052608182 342.1154975859061L858.2982052608182 342.1154975859061Q858.2982052608182 341.0856050417023 858.5924602734478 340.2028400038134Q858.8867152860776 339.2990567507365 859.706425678403 339.08887459885824L859.706425678403 339.08887459885824Q861.2407553871149 338.5003645735989 865.1291251968638 337.78574525721257Q869.0174950066129 337.09214415601406 873.8937209301902 336.3565066244399L873.8937209301902 336.3565066244399Q874.6924131073278 330.36631529590755 875.554159930029 325.3849982963912Q876.3948885375422 320.382663081687 877.2145989298677 316.7254936390041Q878.0343093221932 313.0683241963212 878.7279104233917 311.0505755382893Q879.4215115245901 309.0118086650695 879.9469669042859 309.0118086650695L879.9469669042859 309.0118086650695Q880.0940944106009 309.0118086650695 880.325294777667 309.0958815258208Q880.5354769295453 309.1589361713843 880.6826044358601 309.1589361713843L880.6826044358601 309.1589361713843Q881.1239869548045 309.1589361713843 881.3762055370586 308.6755172220642Q881.6494423345003 308.19209827274403 882.3850798660745 308.19209827274403L882.3850798660745 308.19209827274403Q883.0576627520853 308.19209827274403 883.8143184988472 308.61246257650066Q884.5919924607971 309.0118086650695 885.222538916432 309.6003186903288Q885.853085372067 310.1888287155881 886.2944678910114 310.8193751712231Q886.735850409956 311.4499216268581 886.735850409956 311.8282495002391ZM938.8400058605934 345.58350309189854L938.8400058605934 345.58350309189854Q938.755932999842 347.72736104105746 938.4406597720246 349.8291825598407Q938.1043683290192 351.9520222938118 937.51585830376 353.82264344552897Q936.9063300633128 355.71428281243385 936.0656014557994 357.1855578755822Q935.224872848286 358.6778511539183 934.1739620888944 359.56061619180736L934.1739620888944 359.56061619180736Q933.2911970510055 360.2962537233814 932.7867598864975 360.2962537233814Q932.2613045068017 360.2962537233814 931.9250130637964 360.0019987107518Q931.588721620791 359.7077436981221 931.3785394689127 359.32941582474115Q931.1473391018466 358.97210616654803 930.7900294436535 358.8880333057967L930.7900294436535 358.8880333057967Q930.4957744310237 358.82497866023317 930.0123554817036 358.93006973617236Q929.5289365323835 359.0351608121114 929.0455175830633 358.97210616654803Q928.5620986337432 358.8880333057967 928.1627525451744 358.40461435647654Q927.7634064566055 357.9211954071563 927.6162789502906 356.68112071107424L927.6162789502906 356.68112071107424Q927.448133228788 355.2729002934894 927.7213700262299 353.0239512683913Q927.9735886084839 350.7539840281053 927.9735886084839 348.6101260789464L927.9735886084839 348.6101260789464Q927.9735886084839 346.6974684968537 927.5742425199151 345.394339155208Q927.1538782161583 344.11222802875017 926.1239856719545 344.11222802875017L926.1239856719545 344.11222802875017Q925.6195485074466 344.11222802875017 924.316419165801 344.8899019907Q923.034308039343 345.6675759526499 921.4789601154436 348.16874356000193Q919.9236121915438 350.6909293825419 918.3682642676442 355.4620642301799Q916.8129163437446 360.2121808626301 915.8670966602921 368.13604798844307L915.8670966602921 368.13604798844307Q915.8670966602921 378.329882354542 916.014224166607 384.5302558349526Q916.1613516729218 390.7306293153633 916.1613516729218 394.21965303654355L916.1613516729218 394.21965303654355Q916.1613516729218 397.16220316284006 916.014224166607 398.42329607411006Q915.8670966602921 399.68438898538005 915.2575684198449 400.04169864357317L915.2575684198449 400.04169864357317Q914.9002587616518 400.2728990106394 913.8283297870723 400.60919045364466Q912.7564008124929 400.9244636814622 911.5373443315985 401.23973690927966Q910.3182878507042 401.5339919219094 909.2043224457492 401.74417407378763Q908.0903570407941 401.97537444085384 907.7961020281643 401.8913015801025L907.7961020281643 401.8913015801025Q907.5859198762861 401.828246934539 906.9974098510266 401.40788263078235Q906.4088998257674 401.00853654221356 905.7783533701325 400.42002651695424Q905.1478069144974 399.8315164916949 904.6223515348016 399.2009700360599Q904.1179143702936 398.5704235804249 904.0338415095423 398.12904106148045L904.0338415095423 398.12904106148045Q903.8867140032274 397.39340352990627 903.9287504336031 394.7661266314272Q903.9707868639788 392.13884973294813 903.9918050791665 388.4396438598895Q904.0338415095423 384.7614562020188 904.1179143702936 380.3476310125739Q904.1809690158572 375.9548240383169 904.1809690158572 371.6040534944355L904.1809690158572 371.6040534944355Q904.1809690158572 368.7876126592659 904.3701329525476 365.36164358364914Q904.5592968892382 361.91465629284454 904.811515471492 358.36257792610087Q905.0637340537461 354.8315177745449 905.3579890663758 351.426566914116Q905.6522440790054 348.02161605368707 905.9254808764473 345.3312845096445Q906.1776994587013 342.6409529656019 906.3668633953918 340.83338645944826Q906.5560273320823 339.0048017381069 906.6190819776457 338.64749207991366L906.6190819776457 338.64749207991366Q906.7031548383972 338.05898205465434 907.1655555725293 338.2061095609692Q907.6489745218495 338.35323706728406 908.216466331921 338.7105467254772Q908.7629399268047 339.08887459885824 909.2043224457492 339.38312961148785Q909.6457049646937 339.67738462411745 909.7928324710085 339.38312961148785L909.7928324710085 339.38312961148785Q909.9399599773233 338.7105467254772 910.9067978759637 339.1939656747973Q911.8736357746039 339.67738462411745 912.6723279517415 340.2658946493768L912.6723279517415 340.2658946493768Q912.9665829643712 340.64422252275784 913.386947268128 340.8964411050118Q913.7862933566968 341.1486596872658 914.1646212300776 341.56902399102245Q914.521930888271 341.96837007959124 914.7951676857127 342.6409529656019Q915.0473862679667 343.29251763642475 915.0473862679667 344.4064830413799L915.0473862679667 344.4064830413799Q915.0473862679667 345.4363755855837 915.1945137742815 347.5171788891791Q915.3416412805963 349.5769639775868 915.5518234324746 352.3934048127563L915.5518234324746 352.3934048127563Q916.3715338248002 349.72409148390153 917.527535660131 346.781541357605Q918.6625192802738 343.81797301612056 920.280921849737 341.33782362395624Q921.920342634388 338.85767423179203 924.1272552291103 337.2392716623289Q926.3551860390207 335.6208690928658 929.4448636716321 335.6208690928658L929.4448636716321 335.6208690928658Q931.1473391018466 335.6208690928658 932.849814532061 336.27243376368864Q934.5522899622755 336.9450166496992 935.9184739494847 338.22712777615703Q937.2846579366937 339.5302571178027 938.1043683290192 341.3798600543319Q938.9030605061569 343.22946299086124 938.8400058605934 345.58350309189854ZM991.301470969424 398.2761685677952L991.301470969424 398.2761685677952Q991.301470969424 398.94875145380587 990.1875055644688 399.8945711372584Q989.0945583747015 400.8614090358987 987.392082944487 400.8614090358987L987.392082944487 400.8614090358987Q986.8666275647912 400.8614090358987 985.5004435775821 400.3359536562029Q984.134259590373 399.8315164916949 982.6629845272247 398.82264216267885Q981.1706912488886 397.83478604885073 979.99367119837 396.3845292008903Q978.8166511478513 394.9552905681176 978.7325782871 393.1056876315884L978.7325782871 393.1056876315884Q978.5854507807852 392.2859772392629 978.5854507807852 390.8567386064903Q978.5854507807852 389.4064817585299 978.5854507807852 387.49382417643704L978.5854507807852 387.49382417643704Q978.5854507807852 384.5302558349526 978.5854507807852 380.9151228226454Q978.5854507807852 377.27897159515027 978.7325782871 373.6007839372796L978.7325782871 373.6007839372796Q978.228141122592 376.2490790509465 977.4925035910179 379.10755631649175Q976.7358478442558 381.9450153668492 975.6429006544885 384.7614562020188Q974.5289352495334 387.55687882200056 973.0576601863851 390.2892467964188Q971.565366908049 393.02161477083706 969.6527093259562 395.54380059337694L969.6527093259562 395.54380059337694Q968.6228167817524 396.86794815021045 967.4668149464216 397.79274961847506Q966.3318313262787 398.7175510867398 965.2178659213236 399.3480975423748Q964.1039005163683 399.97864399800966 963.1580808329159 400.2728990106394Q962.1912429342756 400.567154023269 961.6657875545798 400.567154023269L961.6657875545798 400.567154023269Q961.3715325419502 400.567154023269 960.2996035673706 399.936607567634Q959.2276745927911 399.3060611119991 957.7984359600185 398.31820499817087Q956.3481791120581 397.3093306691549 954.729776542595 396.0902741882606Q953.0903557579439 394.8712177073664 951.6190806947957 393.65216122647206Q950.1478056316474 392.43310474557774 948.9707855811288 391.3611757709983Q947.7727473154223 390.2892467964188 947.2683101509143 389.637682125596L947.2683101509143 389.637682125596Q946.7428547712185 388.88102637883395 946.3435086826496 387.1154963030561Q945.923144378893 385.3499662272781 945.6288893662633 382.7647257591746Q945.3346343536338 380.1794852910712 945.1454704169431 376.92166193695715Q944.9773246954405 373.6638385828431 944.9773246954405 369.96463270978455L944.9773246954405 369.96463270978455Q944.9773246954405 367.96790226694037 945.040379341004 364.79415177357765Q945.1244522017554 361.62040128021494 945.3346343536338 357.96323183753196Q945.5658347206999 354.3060623948491 945.9021261637052 350.58583830660274Q946.2173993915227 346.8445960031684 946.7008183408428 343.86000944649624Q947.184237290163 340.8544046746361 947.8568201761735 338.98378352291905Q948.5083848469964 337.09214415601406 949.4121681000732 337.09214415601406L949.4121681000732 337.09214415601406Q950.0006781253326 337.09214415601406 951.4719531884808 337.42843559901945Q952.9432282516292 337.76472704202473 954.4985761755287 337.76472704202473L954.4985761755287 337.76472704202473Q956.7895616310026 337.76472704202473 957.7143630992672 337.3443627382681Q958.6391645675318 336.9450166496992 959.0805470864763 336.9450166496992L959.0805470864763 336.9450166496992Q959.8161846180504 336.9450166496992 959.8161846180504 338.2061095609692L959.8161846180504 338.2061095609692Q959.8161846180504 338.5634192191623 959.8161846180504 338.8997106621677Q959.8161846180504 339.236002105173 959.6690571117357 339.67738462411745L959.6690571117357 339.67738462411745Q959.6060024661721 340.11876714306203 959.3327656687303 341.96837007959124Q959.0805470864763 343.81797301612056 958.7232374282831 346.6974684968537Q958.3449095549022 349.5769639775868 957.9665816815212 353.17107877470613Q957.609272023328 356.74417535663775 957.2729805803227 360.65356338157466Q956.9366891373173 364.5839696216994 956.726506985439 368.57743050738753Q956.4953066183729 372.54987317788795 956.4953066183729 376.18602440538297L956.4953066183729 376.18602440538297Q956.4953066183729 378.6241373671716 956.600397694312 381.06225032896026Q956.726506985439 383.5003632907488 957.0207619980687 385.497093733593Q957.3150170106984 387.49382417643704 957.8194541752064 388.71288065733137Q958.3449095549022 389.9319371382257 959.0805470864763 389.9319371382257L959.0805470864763 389.9319371382257Q959.7531299724869 389.9319371382257 960.9721864533813 389.3013906825907Q962.1912429342756 388.6708442269557 963.8516819341144 386.737168429675Q965.5121209339532 384.8245108475823 967.5088513767972 381.2724324808385Q969.5055818196414 377.74137232928257 971.8386037054908 371.85627207668944Q974.1506073761524 365.99219003928414 976.714829629068 357.458794673024Q979.2580336667958 348.9043810915761 981.9063287804628 337.09214415601406L981.9063287804628 337.09214415601406Q981.9063287804628 336.86094378894796 982.1795655779046 336.7558527130088Q982.4317841601585 336.6507616370696 982.8101120335394 336.6507616370696L982.8101120335394 336.6507616370696Q983.755931716992 336.6507616370696 985.2482249953281 336.8399255737601Q986.7195000584765 337.0080712952627 988.0856840456855 337.3443627382681Q989.4518680328947 337.6806541812734 990.4607423619105 338.12203670021785Q991.4485984757388 338.5634192191623 991.4485984757388 339.08887459885824L991.4485984757388 339.08887459885824Q991.4485984757388 342.4097525985358 991.1543434631091 346.3191406234726Q990.8600884504795 350.24954686359735 990.4817605770985 354.4111534707883Q990.1244509189054 358.59377829316696 989.8301959062757 362.94454883704833Q989.5359408936459 367.31633759611753 989.5359408936459 371.6040534944355L989.5359408936459 371.6040534944355Q989.5359408936459 379.27570203799445 989.9983416277784 386.2747676955427Q990.4817605770985 393.25281513790327 991.301470969424 398.2761685677952ZM1079.5989929735092 396.57369313758073L1079.5989929735092 396.57369313758073Q1079.5989929735092 397.16220316284006 1078.8633554419353 397.20423959321573Q1078.1277179103608 397.2462760235914 1077.3080075180355 397.2462760235914L1077.3080075180355 397.2462760235914Q1076.9506978598424 397.3093306691549 1076.5723699864616 397.39340352990627L1076.5723699864616 397.39340352990627Q1076.1940421130803 397.5405310362211 1075.7946960245117 397.6456221121603Q1075.3953499359427 397.7507131880994 1075.0170220625619 398.12904106148045L1075.0170220625619 398.12904106148045Q1075.1641495688768 398.8646785930545 1075.122113138501 399.2640246816234Q1075.1010949233132 399.68438898538005 1075.1010949233132 399.8945711372584L1075.1010949233132 399.8945711372584L1075.0170220625619 400.18882614988803Q1074.8068399106833 400.48308116251775 1074.134257024673 400.67224509920817Q1073.4616741386621 400.8614090358987 1072.7260366070882 400.8614090358987L1072.7260366070882 400.8614090358987Q1072.5789091007732 400.8614090358987 1072.2846540881437 400.77733617514735L1072.2846540881437 400.77733617514735Q1071.759198708448 400.6302086688325 1071.2547615439398 400.04169864357317L1071.2547615439398 400.04169864357317Q1069.9936686326696 399.68438898538005 1068.2911932024554 399.3060611119991L1068.2911932024554 399.3060611119991Q1067.4084281645664 399.09587896012073 1066.3785356203625 398.8646785930545L1066.3785356203625 398.8646785930545Q1065.5588252280372 398.6334782259884 1064.9703152027778 397.687658542536Q1064.3818051775183 396.7208206438956 1063.8983862281984 395.43870951743787Q1063.414967278878 394.1355801757922 1063.0156211903095 392.769396188583Q1062.6162751017405 391.40321220137395 1062.3010018739228 390.37331965717016L1062.3010018739228 390.37331965717016L1055.0707358493087 367.5265197479959Q1053.4523332798453 367.5265197479959 1050.9721838876812 367.5685561783716Q1048.4920344955167 367.61059260874725 1045.6755936603472 367.6526290391229Q1042.8801710403654 367.67364725431077 1040.0006755596323 367.7997565454378Q1037.1211800788992 367.904847621377 1034.7461217626742 367.96790226694037L1034.7461217626742 367.96790226694037L1019.9703164856278 368.7245580137024L1011.3318300434286 391.3191393406226Q1011.1006296763625 391.69746721400355 1010.7012835877936 392.8114326189587Q1010.2809192840369 393.904379808726 1009.8395367650925 395.1234362896203Q1009.398154246148 396.34249277051464 1009.0408445879548 397.4144217450941Q1008.6625167145738 398.48635071967357 1008.5994620690102 398.7175510867398L1008.5994620690102 398.7175510867398Q1008.4523345626955 399.3060611119991 1007.6956788159335 399.45318861831385Q1006.9600412843594 399.6003161246287 1006.4556041198513 399.74744363094356L1006.4556041198513 399.74744363094356Q1006.0142216009068 399.8945711372584 1005.7199665882772 400.567154023269Q1005.4046933604596 401.23973690927966 1004.8161833352004 401.449919061158L1004.8161833352004 401.449919061158Q1004.2276733099411 401.828246934539 1003.3449082720521 401.5339919219094Q1002.4621432341631 401.23973690927966 1001.7895603481525 400.567154023269L1001.7895603481525 400.567154023269Q1001.2010503228931 399.8315164916949 1001.348177829208 398.6755146563641Q1001.4953053355229 397.5405310362211 1001.4953053355229 396.2794381249511L1001.4953053355229 396.2794381249511Q1001.4953053355229 395.01834521368113 1001.4532689051472 393.904379808726Q1001.4322506899593 392.8114326189587 1001.7895603481525 391.7815400747549L1001.7895603481525 391.7815400747549Q1001.9366878544673 391.3191393406226 1002.7143618164172 389.007135669961Q1003.4920357783669 386.6741137841115 1004.6690558288856 383.3952722148096Q1005.8670940945921 380.09541243031987 1007.2542962969891 376.2070426205708Q1008.6625167145738 372.3396910260096 1010.1337917777221 368.7245580137024L1010.1337917777221 368.7245580137024Q1008.8096442208886 368.7245580137024 1008.3052070563807 367.96790226694037L1008.3052070563807 367.96790226694037Q1007.9268791829996 367.37939224168105 1007.4014238033038 367.274301165742Q1006.8969866387957 367.1692100898028 1006.3084766135365 366.9380097227366L1006.3084766135365 366.9380097227366Q1005.7199665882772 366.7908822164217 1005.4887662212111 366.28644505191374Q1005.2575658541449 365.76098967221793 1005.4046933604596 365.382661798837L1005.4046933604596 365.382661798837Q1005.5518208667746 364.9412792798925 1005.1945112085813 364.6470242672628Q1004.8161833352004 364.3527692546332 1004.8161833352004 363.3228767104294L1004.8161833352004 363.3228767104294Q1004.8161833352004 362.8814941914848 1005.5308026515867 362.482148102916Q1006.2244037527852 362.0617837991594 1007.2542962969891 361.7675287865297Q1008.3052070563807 361.4732737739001 1009.5873181828384 361.2630916220217Q1010.8904475244841 361.0318912549556 1012.0674675750028 360.88476374864075L1012.0674675750028 360.88476374864075Q1012.277649726881 360.88476374864075 1012.6139411698863 360.88476374864075Q1012.9502326128917 360.88476374864075 1013.3285604862726 360.7376362423259L1013.3285604862726 360.7376362423259Q1014.9469630557359 356.828248217389 1017.0067481441434 352.26729552162936Q1019.0875514477389 347.72736104105746 1021.2734458272735 342.99826262379503Q1023.4383219916202 338.2691642065327 1025.6662528015304 333.5400657892703Q1027.8731653962527 328.81096737200795 1029.869895839097 324.6493607648171Q1031.866626281941 320.46673594243833 1033.5270652817799 316.99873043644595Q1035.1875042816187 313.50970671526574 1036.301469686574 311.2187212597919L1036.301469686574 311.2187212597919Q1035.418704648685 308.48635328537364 1034.7040853322987 306.1953678298999Q1034.0104842311002 303.9043823744262 1033.4850288514044 302.22292515939955Q1032.9805916868963 300.5204497291851 1032.6863366742664 299.5115754001691Q1032.392081661637 298.5237192863409 1032.392081661637 298.37659178002616L1032.392081661637 298.37659178002616Q1032.3080088008855 298.2294642737113 1032.392081661637 298.08233676739644L1032.392081661637 298.08233676739644Q1032.5392091679519 297.7040088940155 1033.1277191932113 297.640954248452L1033.1277191932113 297.640954248452Q1032.5392091679519 296.52698884349684 1032.5392091679519 296.001533463801L1032.5392091679519 296.001533463801Q1032.5392091679519 295.70727845117136 1032.6863366742664 295.6442238056079L1032.6863366742664 295.6442238056079Q1032.8334641805814 295.49709629929305 1033.4219742058408 295.3499687929782Q1034.0104842311002 295.20284128666333 1034.6830671171106 295.07673199553636Q1035.3346317879336 294.97164091959723 1035.923141813193 294.92960448922156Q1036.5326700536402 294.9085862740337 1036.7428522055184 294.9085862740337L1036.7428522055184 294.9085862740337Q1036.8269250662697 294.9085862740337 1037.1211800788992 294.97164091959723L1037.1211800788992 294.97164091959723Q1037.5625625978437 295.11876842591204 1038.3612547749813 295.6442238056079L1038.3612547749813 295.6442238056079Q1038.445327635733 295.26589593222684 1038.5504187116721 295.11876842591204Q1038.6555097876112 294.97164091959723 1038.823655509114 294.8245134132824L1038.823655509114 294.8245134132824L1039.033837660992 294.5933130462162Q1039.4752201799365 294.3831308943379 1040.0006755596323 294.4882219702771Q1040.5051127241404 294.5933130462162 1040.9464952430849 294.5933130462162L1040.9464952430849 294.5933130462162Q1041.408895977217 294.5933130462162 1041.5770416987198 294.23600338802305Q1041.7662056354102 293.8576755146421 1042.5018431669846 293.8576755146421L1042.5018431669846 293.8576755146421Q1043.4686810656249 293.8576755146421 1044.1412639516357 295.9384788182375L1044.1412639516357 295.9384788182375Q1044.2043185971988 296.2957884764307 1045.171156495839 298.71288322303144Q1046.1379943944798 301.1089597544444 1047.6092694576278 304.97631134900564Q1049.0805445207761 308.8646811587547 1051.0352385332449 313.97210744939804Q1053.0109507609009 319.0585155248536 1055.1337904948718 324.79648827113186Q1057.277648444031 330.5134428022224 1059.4635428235656 336.6087252066939Q1061.6494372031002 342.7040076111654 1063.6461676459444 348.6101260789464L1063.6461676459444 348.6101260789464Q1067.7867560379473 360.65356338157466 1070.582178657929 368.93474016558076Q1073.3986194930985 377.21591694958676 1075.122113138501 382.470470746545Q1076.866624999091 387.7040063283154 1077.7073536066046 390.2892467964188Q1078.5691004293053 392.8744872645222 1078.779282581184 393.399942644218L1078.779282581184 393.399942644218Q1079.1576104545647 394.57696269473666 1079.388810821631 395.291582011123Q1079.5989929735092 395.9851831123215 1079.5989929735092 396.57369313758073ZM1052.1912403685756 358.8880333057967L1047.7563969639427 346.024885610843Q1045.84373938185 340.5601496620065 1043.573772141564 333.7712661563365Q1041.3248231164657 326.96136443547863 1039.180965167307 320.31960843612353L1039.180965167307 320.31960843612353Q1037.9198722560368 323.57743179023765 1036.154342180259 328.1594027011851Q1034.388812104481 332.7413736121327 1032.4130998768246 337.61759953570987Q1030.4584058643563 342.49382545928705 1028.6088029278271 347.13885101579814Q1026.759199991298 351.80489478749706 1025.371997788901 355.12577278717464L1025.371997788901 355.12577278717464L1023.2911944853054 360.0019987107518L1036.5957246992034 359.1822883184263Q1038.298200129418 359.1822883184263 1040.6522402304554 359.1192336728628L1040.6522402304554 359.1192336728628Q1044.6457011161433 359.0351608121114 1052.1912403685756 358.8880333057967L1052.1912403685756 358.8880333057967ZM1113.1440644132904 395.3966730870622L1113.1440644132904 395.3966730870622Q1117.5789078179232 395.3966730870622 1121.9717147921801 396.1953652641998Q1126.3855399816252 397.0150756565253 1129.916600133181 398.94875145380587Q1133.4686784999249 400.8614090358987 1135.6545728794595 403.99312309888575Q1137.819449043806 407.1458553770606 1137.819449043806 411.87495379432306L1137.819449043806 411.87495379432306Q1137.819449043806 415.3429593003155 1136.201046474343 418.89503766705917Q1134.5826439048797 422.44711603380296 1131.703148424147 425.76799403348053Q1128.823652943414 429.0888720331581 1124.9352831336646 432.05244037464246Q1121.0469133239153 434.9949905009391 1116.5490152737193 437.1808848804737Q1112.0511172235233 439.3667792600083 1107.1538730847583 440.60685395609045Q1102.277647161181 441.86794686736044 1097.4014212376037 441.86794686736044L1097.4014212376037 441.86794686736044Q1093.4289785671035 441.86794686736044 1089.918936630735 441.0272182598471Q1086.408894694367 440.165471437146 1083.781617795888 438.4629960069315Q1081.154340897409 436.7815387919049 1079.5989929735092 434.2173165389892Q1078.04364504961 431.6741125012615 1078.04364504961 428.20610699526907L1078.04364504961 428.20610699526907Q1078.04364504961 424.80115613484014 1079.388810821631 421.81656957816796Q1080.7129583784645 418.8109648063078 1082.898852757999 416.3097971989558Q1085.063728922346 413.7876113764158 1087.8801697575154 411.7698627183839Q1090.6755923774972 409.73109584516413 1093.681197149357 408.36491185795495Q1096.6657837060297 406.9987278707459 1099.5452791867629 406.2630903391717Q1102.4247746674955 405.5064345924097 1104.799832983721 405.5064345924097L1104.799832983721 405.5064345924097Q1106.0609258949908 405.65356209872454 1106.5023084139352 405.84272603541507Q1106.9436909328797 406.0318899721055 1106.9436909328797 406.2630903391717L1106.9436909328797 406.2630903391717Q1106.9436909328797 406.47327249105007 1106.7124905658134 406.80956393405535Q1106.5023084139352 407.1458553770606 1106.5023084139352 407.356037528939L1106.5023084139352 407.356037528939Q1106.6494359202502 407.79742004788346 1106.7965634265647 408.4069482883306Q1106.9436909328797 408.99545831358995 1106.9436909328797 409.5839683388493L1106.9436909328797 409.5839683388493Q1106.9436909328797 410.31960587042346 1106.6914723506256 410.8660794653071Q1106.4182355531839 411.4335712753786 1105.6195433760463 411.58069878169334L1105.6195433760463 411.58069878169334Q1102.5088475282469 412.3163363132675 1098.767605224813 414.0818663890455Q1095.0473811365664 415.8684146800113 1091.7475213520765 418.2644912114242Q1088.4686797827749 420.66056774283715 1086.2617671880525 423.4349721476311Q1084.033836378142 426.209376552425 1083.9707817325784 429.00479917240676L1083.9707817325784 429.00479917240676Q1083.9707817325784 430.349964944428 1085.210856428661 430.9384749696873Q1086.4719493399307 431.52698499494664 1088.7629347954044 431.52698499494664L1088.7629347954044 431.52698499494664Q1091.5793756305738 431.52698499494664 1095.4887636555109 430.7072746026212Q1099.3981516804479 429.90858242548353 1103.622812933202 428.3952709319596Q1107.8264559707686 426.86094122324783 1111.925007932396 424.69606505890107Q1116.0235598940235 422.51017067936647 1119.3234196785133 419.7778027049482Q1122.602261247815 417.04543473052996 1124.5989916906592 413.87168423716713Q1126.5957221335034 410.6979337438044 1126.5957221335034 407.0617825163094L1126.5957221335034 407.0617825163094Q1126.5957221335034 405.2962524405314 1125.9021210323049 404.28737811151547Q1125.1875017159186 403.29952199768724 1124.2627002476538 402.7740666179914Q1123.3378987793894 402.26962945348345 1122.350042665561 402.1435201623564Q1121.3411683365453 402.03842908641735 1120.6896036657226 402.03842908641735L1120.6896036657226 402.03842908641735Q1115.435049868764 402.03842908641735 1109.9703139199278 402.66897554205235Q1104.505577971091 403.29952199768724 1100.0286981360828 403.99312309888575Q1095.5728365162622 404.7077424152721 1092.6723228203414 405.3382888709071Q1089.7928273396083 405.9688353265421 1089.6456998332933 405.9688353265421L1089.6456998332933 405.9688353265421Q1088.0272972638304 405.9688353265421 1086.661113276621 405.2962524405314Q1085.2949292894118 404.62366955452075 1084.3280913907715 403.59377701031696Q1083.3612534921313 402.56388446611317 1082.8147798972477 401.197700478904Q1082.2683063023642 399.8315164916949 1082.2683063023642 398.42329607411006L1082.2683063023642 398.42329607411006Q1082.2683063023642 397.3093306691549 1083.5924538591976 395.20750915037166Q1084.916601416031 393.1056876315884 1087.0604593651901 390.66757466979976Q1089.2043173143488 388.22946170801123 1091.9787217191429 385.8544033917861Q1094.753126123937 383.5003632907488 1097.5485487439187 381.9450153668492L1097.5485487439187 381.9450153668492Q1095.0473811365664 380.6208678100157 1093.0506506937222 378.6871920127351Q1091.053920250878 376.7745344306423 1089.6877362636692 374.546603620732Q1088.32155227646 372.3396910260096 1087.585914744886 369.85954163384537Q1086.8502772133115 367.37939224168105 1086.8502772133115 364.79415177357765L1086.8502772133115 364.79415177357765Q1086.8502772133115 359.7707983436856 1088.2374794157085 355.9034467491244Q1089.6456998332933 352.0150769393753 1091.9366852887674 349.1355814586422Q1094.227670744241 346.2560859779092 1097.086148009786 344.32241018062854Q1099.9236070601437 342.4097525985358 1102.7400478953132 341.23273254801717Q1105.535470515295 340.0557124974985 1108.057656337835 339.5722935481784Q1110.5588239451872 339.08887459885824 1112.2612993754014 339.08887459885824L1112.2612993754014 339.08887459885824Q1113.0810097677268 339.08887459885824 1113.6274833626107 339.15192924442164Q1114.1739569574943 339.236002105173 1114.6363576916265 339.38312961148785L1114.6363576916265 339.38312961148785Q1116.464942412968 336.4195612700034 1118.8820371595689 333.05664683995013Q1121.2781136909816 329.6937324098969 1123.8213177287093 326.414890840595Q1126.3855399816252 323.1360492712931 1128.928744019353 320.13044449943305Q1131.4719480570807 317.14585794276076 1133.573769575864 314.81283605691135Q1135.696609309835 312.47981417106195 1137.1678843729833 311.1136301838528Q1138.6391594361316 309.74744619664364 1139.1646148158275 309.74744619664364L1139.1646148158275 309.74744619664364Q1139.81617948665 309.74744619664364 1140.7830173852903 310.6091930193448Q1141.7498552839306 311.4499216268581 1142.6326203218196 312.5218506014376Q1143.515385359709 313.5937795760171 1144.1459318153438 314.5816356898452Q1144.7764782709787 315.59051001886115 1144.7764782709787 315.94781967705427L1144.7764782709787 315.94781967705427Q1144.7764782709787 316.32614755043534 1144.4822232583492 316.62040256306494Q1144.1879682457193 316.91465757569466 1144.1879682457193 317.14585794276076L1144.1879682457193 317.14585794276076Q1144.1879682457193 317.50316760095393 1144.5873143342883 317.77640439839575Q1144.9866604228569 318.0286229806498 1145.8063708151826 318.40695085403075L1145.8063708151826 318.40695085403075Q1145.9534983214971 318.5540783603456 1146.0375711822485 318.5540783603456Q1146.100625827812 318.5540783603456 1146.100625827812 318.7012058666604L1146.100625827812 318.7012058666604Q1146.100625827812 318.9954608792901 1145.1548061443596 319.68906198048853Q1144.1879682457193 320.382663081687 1142.0441102965606 322.1271749422771Q1139.9002523474014 323.87168680286726 1136.4953014869725 326.96136443547863Q1133.0903506265436 330.07206028327795 1128.151070057403 335.17948657392134L1128.151070057403 335.17948657392134Q1126.9740500068842 336.27243376368864 1125.7129570956145 337.9118545483396Q1124.4518641843442 339.5302571178027 1122.9805891211963 341.3798600543319L1122.9805891211963 341.3798600543319Q1124.8932467032892 342.4097525985358 1126.9740500068842 344.11222802875017Q1129.033835095292 345.81470345896463 1130.6942740951308 348.06365248406274Q1132.3547130949696 350.31260150916086 1133.426642069549 353.19209698989397Q1134.4985710441288 356.0715924706271 1134.4985710441288 359.4134886854925L1134.4985710441288 359.4134886854925Q1134.4985710441288 366.4966272037921 1132.144530943091 371.3097984818058Q1129.769472626866 376.10195154463173 1126.007212108244 379.0234834557404Q1122.244951589622 381.9450153668492 1117.5789078179232 383.2061082781192Q1112.9338822614122 384.44618297420124 1108.414965996028 384.44618297420124L1108.414965996028 384.44618297420124Q1107.3220188062605 384.44618297420124 1106.3131444772448 384.38312832863784Q1105.3252883634168 384.2990554678865 1104.358450464776 384.15192796157163L1104.358450464776 384.15192796157163Q1102.6559750345618 385.26589336652677 1100.5121170854031 386.8842959359899Q1098.368259136244 388.52371672064083 1096.3084740478362 390.43637430273367Q1094.227670744241 392.3700501000142 1092.5041770988387 394.3667805428584Q1090.7596652382485 396.34249277051464 1089.8769002003596 398.12904106148045L1089.8769002003596 398.12904106148045Q1092.8194503266564 398.0449682007291 1095.5728365162622 397.6456221121603Q1098.3052044906804 397.2462760235914 1101.0585906802867 396.7208206438956Q1103.8329950850807 396.1953652641998 1106.7965634265647 395.796019175631Q1109.7601317680492 395.3966730870622 1113.1440644132904 395.3966730870622ZM1110.8530789578167 348.16874356000193L1110.8530789578167 348.16874356000193Q1110.8530789578167 346.6974684968537 1112.555554388031 343.1453901301099L1112.555554388031 343.1453901301099Q1109.0875488820388 344.259355535065 1106.3551809076203 346.46626812978747Q1103.622812933202 348.69419893969774 1101.6891371359216 351.51063977486734Q1099.7764795538287 354.3060623948491 1098.7465870096248 357.5218493185875Q1097.6956762502332 360.7376362423259 1097.6956762502332 363.9113867356887L1097.6956762502332 363.9113867356887Q1097.6956762502332 366.2023721911624 1098.263168060305 368.30419370994576Q1098.8096416551884 370.42703344391686 1099.9866617057069 372.08747244375564Q1101.1846999714135 373.74791144359443 1103.0553211231309 374.73576755742255Q1104.9469604900355 375.7446418864385 1107.679328464454 375.7446418864385L1107.679328464454 375.7446418864385Q1110.642896805938 375.7446418864385 1112.9549004766 374.67271291185904Q1115.2879223624495 373.6007839372796 1117.0744706534151 371.85627207668944Q1118.840000729193 370.1117602160993 1120.0590572100873 367.96790226694037Q1121.2781136909816 365.8450625329693 1122.0557876529315 363.7222227989982Q1122.8334616148813 361.62040128021494 1123.1907712730745 359.7707983436856Q1123.5690991464553 357.9211954071563 1123.5690991464553 356.828248217389L1123.5690991464553 356.828248217389Q1123.5690991464553 352.3934048127563 1122.118842298495 349.91325542059207Q1120.6896036657226 347.43310602842774 1118.7559278684416 346.17201311715786L1118.7559278684416 346.17201311715786Q1117.7260353242382 347.43310602842774 1116.612069919283 348.58910786375856Q1115.5191227295154 349.72409148390153 1114.3210844638093 350.9011115344202L1114.3210844638093 350.9011115344202Q1114.1739569574943 351.04823904073504 1113.8797019448648 351.04823904073504L1113.8797019448648 351.04823904073504Q1113.6695197929862 351.04823904073504 1113.5223922866712 350.83805688885667Q1113.3752647803567 350.6068565217906 1112.9969369069759 350.6068565217906L1112.9969369069759 350.6068565217906Q1112.7867547550973 350.6068565217906 1112.555554388031 350.83805688885667Q1112.3453722361528 351.04823904073504 1111.967044362772 351.04823904073504L1111.967044362772 351.04823904073504Q1111.4415889830761 351.04823904073504 1111.1473339704462 350.4597290154757Q1110.8530789578167 349.8712189902164 1110.8530789578167 348.16874356000193ZM1164.9539648512982 302.285979804963L1164.9539648512982 302.285979804963Q1165.0170194968614 303.7572548681113 1164.8278555601714 305.58583958945275Q1164.6597098386687 307.39340609560634 1164.239345534912 309.0958815258208Q1163.839999446343 310.7773387408474 1163.1463983451445 312.1225045128687Q1162.4317790287582 313.4466520697022 1161.464941130118 313.97210744939804L1161.464941130118 313.97210744939804Q1159.0268281683293 315.2121821454802 1157.1982434469878 315.2121821454802L1157.1982434469878 315.2121821454802Q1155.7059501686517 315.2121821454802 1154.6340211940724 314.5185810442817Q1153.562092219493 313.8249799430832 1152.5321996752891 312.9211966900064L1152.5321996752891 312.9211966900064Q1151.0609246121408 311.74417663948776 1150.0520502831246 309.831519057395Q1149.0641941692966 307.8978432601143 1149.0641941692966 306.13231318433645L1149.0641941692966 306.13231318433645Q1149.0641941692966 304.7240927667516 1149.547613118617 302.68532589353185Q1150.0310320679368 300.6675772354999 1150.7666695995113 298.7339014382193Q1151.5023071310852 296.8212438561265 1152.3430357385987 295.22385950185117Q1153.2047825612995 293.6474933627637 1154.003474738437 293.0589833375044L1154.003474738437 293.0589833375044Q1155.2645676497073 292.0080725781128 1156.3364966242866 291.9029815021736Q1157.408425598866 291.7978904262345 1158.0810084848767 292.0080725781128L1158.0810084848767 292.0080725781128Q1159.69941105434 292.3864004514938 1160.9605039656099 292.93287404637744Q1162.22159687688 293.5003658564489 1163.062325484393 294.63534947659184Q1163.9030540919066 295.79135131192265 1164.3654548260388 297.640954248452Q1164.8068373449833 299.4905571849813 1164.9539648512982 302.285979804963ZM1158.8797006620143 335.3266140802361L1158.8797006620143 335.3266140802361Q1159.2580285353956 335.6839237384293 1159.447192472086 337.76472704202473Q1159.6363564087765 339.8245121304323 1159.6363564087765 343.1453901301099L1159.6363564087765 343.1453901301099Q1159.6363564087765 345.37332094002016 1159.5522835480251 347.95856140812356Q1159.4892289024615 350.54380187622706 1159.3631196113347 353.2761698506453Q1159.2580285353956 356.00853782506357 1159.1109010290807 358.7829422298575Q1158.9637735227657 361.5573466346514 1158.8797006620143 364.05851424200347L1158.8797006620143 364.05851424200347Q1158.6695185101362 368.1991026340066 1158.6274820797607 371.7091445703747Q1158.5854456493848 375.2191865067427 1158.5854456493848 378.47700986085675L1158.5854456493848 378.47700986085675Q1158.5854456493848 382.7647257591746 1158.6695185101362 386.29578591073056Q1158.7325731556998 389.84786427747434 1158.7325731556998 392.22292259369937L1158.7325731556998 392.22292259369937Q1158.7325731556998 394.8081630618029 1158.5644274341971 396.17434704901194Q1158.3752634975067 397.5405310362211 1157.7867534722473 397.687658542536L1157.7867534722473 397.687658542536Q1157.1141705862365 397.83478604885073 1156.672788067292 398.31820499817087Q1156.2314055483475 398.8016239474911 1155.8530776749667 399.2430064664356Q1155.4957680167736 399.68438898538005 1155.0123490674532 400.02068042838533Q1154.5289301181328 400.3359536562029 1153.8563472321225 400.18882614988803L1153.8563472321225 400.18882614988803Q1153.4990375739294 400.1257715043245 1152.6162725360405 399.5372614790652Q1151.7124892829634 398.94875145380587 1150.7246331691354 398.0870046311048Q1149.7157588401196 397.2462760235914 1148.8329938022302 396.13231061863627Q1147.9502287643413 395.01834521368113 1147.6559737517118 393.8413251631626L1147.6559737517118 393.8413251631626Q1147.5088462453969 393.25281513790327 1147.4037551694578 391.46626684693746Q1147.277645878331 389.7007367711595 1147.2145912327674 387.1995691638073Q1147.130518372016 384.67738334126744 1147.0674637264524 381.6087239238439Q1146.983390865701 378.54006450642026 1146.9623726505133 375.4083504434332Q1146.9203362201379 372.2556181652582 1146.9203362201379 369.22899517821037Q1146.9203362201379 366.2023721911624 1146.9203362201379 363.76425922937386L1146.9203362201379 363.76425922937386Q1146.9203362201379 360.0019987107518 1147.1725548023915 356.0715924706271Q1147.4247733846455 352.1622044456902 1147.761064827651 348.75725358526125Q1148.0973562706563 345.37332094002016 1148.4336477136617 342.8090986871046Q1148.769939156667 340.2658946493768 1148.917066662982 339.236002105173L1148.917066662982 339.236002105173Q1149.2113216756115 337.470472029395 1149.547613118617 336.46159770037906Q1149.8839045616223 335.47374158655094 1150.283250650191 335.0323590676065Q1150.68259673876 334.5699583334742 1151.1029610425162 334.464867257535Q1151.5023071310852 334.3597761815958 1151.9436896500297 334.27570332084446L1151.9436896500297 334.27570332084446Q1152.8264546879186 334.1285758145296 1153.9824565232493 334.21264867528095Q1155.1174401433923 334.27570332084446 1156.1473326875962 334.4228308271593Q1157.1982434469878 334.5699583334742 1157.95489919375 334.84319513091594Q1158.7325731556998 335.09541371317 1158.8797006620143 335.3266140802361ZM1186.3715261276998 300.07906721024057L1186.3715261276998 300.07906721024057Q1186.3715261276998 301.1089597544444 1186.2243986213848 304.13558274149227Q1186.0772711150703 307.16220572854024 1185.8670889631917 311.4078851964824Q1185.6358885961254 315.65356466442466 1185.3836700138718 320.7189545246924Q1185.1104332164296 325.7843443849601 1184.8161782038 330.8497342452277Q1184.5219231911706 335.9151241054954 1184.311741039292 340.64422252275784Q1184.080540672226 345.37332094002016 1184.0174860266625 348.9043810915761L1184.0174860266625 348.9043810915761Q1183.8703585203475 351.04823904073504 1183.828322089972 353.63347950883843Q1183.7862856595962 356.23973819212966 1183.7862856595962 359.1822883184263L1183.7862856595962 359.1822883184263Q1183.7862856595962 363.0916763433632 1183.828322089972 367.3583740264932Q1183.8703585203475 371.6040534944355 1183.9334131659111 375.7446418864385Q1184.0174860266625 379.8852302784416 1184.1225771026016 383.6895272274393Q1184.227668178541 387.49382417643704 1184.311741039292 390.520447163485Q1184.3747956848556 393.5470701505329 1184.4168321152315 395.5858370237526Q1184.458868545607 397.60358568178464 1184.458868545607 398.12904106148045L1184.458868545607 398.12904106148045Q1184.458868545607 399.15893360568424 1184.1225771026016 399.7054072005679Q1183.7862856595962 400.2728990106394 1183.3028667102762 400.4620629473299Q1182.8194477609559 400.6302086688325 1182.3150105964482 400.5251175928933Q1181.7895552167524 400.42002651695424 1181.4322455585589 400.18882614988803L1181.4322455585589 400.18882614988803Q1180.9908630396144 399.97864399800966 1180.7176262421726 399.68438898538005Q1180.4654076599186 399.39013397275033 1180.318280153604 399.2430064664356Q1180.171152647289 399.09587896012073 1180.06606157135 399.15893360568424Q1179.9399522802228 399.2430064664356 1179.8768976346596 399.74744363094356L1179.8768976346596 399.74744363094356Q1179.6456972675933 401.6811194282241 1179.0151508119584 402.6269391116767Q1178.4056225715112 403.59377701031696 1177.691003255125 403.93006845332224Q1176.9974021539265 404.26635989632763 1176.408892128667 404.11923239001277Q1175.79936388822 403.9721048836979 1175.652236381905 403.59377701031696L1175.652236381905 403.59377701031696Q1175.5051088755904 403.215449136936 1175.1898356477727 403.1523944913725Q1174.8535442047673 403.06832163062114 1174.4752163313865 403.0473034154333Q1174.1179066731934 403.00526698505763 1173.781615230188 402.8161030483671Q1173.4453237871826 402.6269391116767 1173.3612509264312 402.03842908641735L1173.3612509264312 402.03842908641735Q1172.7727409011718 399.5372614790652 1172.6256133948573 395.64889166931613Q1172.4784858885423 391.7815400747549 1172.4784858885423 386.8842959359899L1172.4784858885423 386.8842959359899Q1172.4784858885423 382.6806528984234 1172.5625587492937 377.8044269748461Q1172.6256133948573 372.9282010512689 1172.6256133948573 367.8207747606256L1172.6256133948573 367.8207747606256Q1172.6256133948573 364.878224634329 1172.6256133948573 361.9566927232202Q1172.6256133948573 359.0351608121114 1172.4784858885423 356.00853782506357L1172.4784858885423 356.00853782506357L1172.4784858885423 351.34249405336465Q1172.4784858885423 345.37332094002016 1172.7727409011718 339.34109318111217Q1173.0669959138017 333.329883637392 1173.529396647934 327.78107482780416Q1173.9707791668784 322.2322660182163 1174.4752163313865 317.3560400946391Q1175.0006717110823 312.47981417106195 1175.3579813692754 308.71755365243985Q1175.7363092426563 304.9552931338178 1175.9675096097226 302.58023481759267Q1176.1776917616007 300.22619471655537 1176.1146371160376 299.63768469129604L1176.1146371160376 299.63768469129604Q1176.0305642552862 299.11222931160023 1176.2197281919766 298.88102894453414Q1176.408892128667 298.67084679265577 1176.7241653564843 298.6288103622801Q1177.0604567994897 298.5867739319044 1177.438784672871 298.5657557167166Q1177.796094331064 298.5237192863409 1178.0903493436936 298.37659178002616L1178.0903493436936 298.37659178002616Q1178.6158047233894 298.08233676739644 1178.9520961663948 298.1874278433356Q1179.2883876094002 298.2925189192748 1179.4985697612783 298.5237192863409Q1179.7297701283446 298.7339014382193 1179.918934065035 299.0071382356611Q1180.0870797865377 299.2593568179151 1180.4654076599186 299.2593568179151L1180.4654076599186 299.2593568179151Q1180.906790178863 299.17528395716374 1181.159008761117 299.0071382356611Q1181.4322455585589 298.8179742989706 1181.6003912800616 298.6288103622801Q1181.7895552167524 298.4396464255896 1181.9787191534429 298.2925189192748Q1182.1678830901333 298.14539141295995 1182.4621381027628 298.2294642737113L1182.4621381027628 298.2294642737113Q1183.0506481280222 298.37659178002616 1183.5971217229057 298.41862821040183Q1184.1646135329775 298.4396464255896 1184.1646135329775 298.2294642737113L1184.1646135329775 298.2294642737113Q1184.311741039292 297.640954248452 1184.605996051922 297.6619724636398Q1184.9002510645514 297.7040088940155 1185.3416335834959 298.08233676739644L1185.3416335834959 298.08233676739644Q1185.7830161024403 298.4396464255896 1186.0772711150703 298.8600107293463Q1186.3715261276998 299.2593568179151 1186.3715261276998 300.07906721024057ZM1245.5588200966367 371.75118100075025L1245.5588200966367 371.75118100075025Q1245.5588200966367 372.54987317788795 1245.642892957388 373.6638385828431Q1245.7059476029517 374.7778039877982 1245.7059476029517 376.18602440538297L1245.7059476029517 376.18602440538297Q1245.7059476029517 377.95155448116094 1245.201510438444 380.57883137964Q1244.6760550587478 383.2061082781192 1243.5410714386048 386.0856037588523Q1242.3850696032741 388.9650992395853 1240.4724120211813 391.8445947203184Q1238.5387362239007 394.7240902010515 1235.743313603919 397.0150756565253Q1232.9268727687495 399.3060611119991 1229.1225758197515 400.7563179599595Q1225.318278870754 402.1855565927321 1220.4420529471768 402.1855565927321L1220.4420529471768 402.1855565927321Q1216.0912824032953 402.1855565927321 1211.5303297075357 400.5251175928933Q1206.9903952269638 398.8646785930545 1203.2701711387172 395.3546366566865Q1199.5289288352833 391.8445947203184 1197.13285230387 386.4218952018576Q1194.7157575572692 380.9781774682089 1194.7157575572692 373.4536564309647L1194.7157575572692 373.4536564309647Q1194.7157575572692 368.7245580137024 1195.934814038164 364.1425871027548Q1197.174888734246 359.56061619180736 1199.192637392278 355.48308244536776Q1201.2314042654975 351.426566914116 1204.0058086702916 348.00059783849923Q1206.7802130750856 344.55361054769475 1209.8278542773214 342.0734611555304Q1212.896513694745 339.5933117633662 1216.1963734792348 338.2061095609692Q1219.4752150485365 336.79788914338445 1222.585910896336 336.79788914338445L1222.585910896336 336.79788914338445Q1227.987592199609 336.79788914338445 1231.4976341359766 338.5003645735989Q1235.007676072345 340.2028400038134 1237.0674611607524 342.7040076111654Q1239.1272462491602 345.2261934337053 1239.9889930718614 348.06365248406274Q1240.8297216793744 350.9011115344202 1240.8297216793744 353.19209698989397L1240.8297216793744 353.19209698989397Q1240.8297216793744 355.42002779980425 1239.757792704795 358.2574868501617Q1238.6858637302157 361.11596411570696 1236.247750768427 363.6591681534347Q1233.8096378066384 366.2023721911624 1229.9002497817014 367.94688405175253Q1225.9908617567644 369.67037769715483 1220.2949254408618 369.67037769715483L1220.2949254408618 369.67037769715483Q1217.2683024538142 369.67037769715483 1214.8512077072132 368.8296490896416Q1212.4551311758005 367.96790226694037 1210.6055282392708 366.68579114048265Q1208.7559253027416 365.382661798837 1207.4738141762837 363.86935030531305Q1206.1706848346385 362.356038811789 1205.2879197967495 361.0318912549556L1205.2879197967495 361.0318912549556Q1203.9637722399161 365.6138621659032 1203.9637722399161 371.75118100075025L1203.9637722399161 371.75118100075025Q1203.9637722399161 375.9548240383169 1205.18282872081 379.3177384683701Q1206.4018852017043 382.6806528984234 1208.5457431508635 385.0557112146484Q1210.6896011000226 387.4097513156857 1213.632151226319 388.6708442269557Q1216.5957195678034 389.9319371382257 1220.1477979345473 389.9319371382257L1220.1477979345473 389.9319371382257Q1224.58264133918 389.9319371382257 1227.9035193388572 388.41862564470165Q1231.2243973385348 386.8842959359899 1233.7045467306993 384.61432869570393Q1236.1846961228634 382.32334324023014 1237.9922626290172 379.61199348099973Q1239.799829135171 376.92166193695715 1241.1239766920044 374.67271291185904Q1242.4691424640255 372.4027456715731 1243.4569985778535 370.93147060842483Q1244.4658729068697 369.4601955452766 1245.4116925903222 369.52325019084L1245.4116925903222 369.52325019084Q1245.8530751092667 369.52325019084 1245.8530751092667 370.25888772241416L1245.8530751092667 370.25888772241416Q1245.8530751092667 370.6372155957951 1245.790020463703 371.0155434691762Q1245.7059476029517 371.3728531273693 1245.5588200966367 371.75118100075025ZM1223.3215484279099 344.259355535065L1223.3215484279099 344.259355535065Q1221.9974008710765 344.259355535065 1219.8955793522932 344.8058291299487Q1217.7727396183222 345.37332094002016 1215.4607359476604 346.781541357605Q1213.1277140618113 348.16874356000193 1210.8367286063371 350.58583830660274Q1208.5457431508635 352.9819148380156 1206.8432677206488 356.68112071107424L1206.8432677206488 356.68112071107424Q1207.8731602648527 356.15566533137843 1208.6508342268025 355.77733745799736Q1209.4285081887524 355.42002779980425 1209.7227632013823 355.42002779980425L1209.7227632013823 355.42002779980425Q1209.8698907076969 355.42002779980425 1210.1641457203268 355.71428281243385L1210.1641457203268 355.71428281243385Q1211.866621150541 358.59377829316696 1214.4098251882688 359.8128347740613Q1216.9740474411842 361.0318912549556 1220.1477979345473 361.0318912549556L1220.1477979345473 361.0318912549556Q1222.648965541899 361.0318912549556 1224.4775502632406 360.19116264744224Q1226.2851167693943 359.32941582474115 1227.4621368199128 358.00526826790764Q1228.6391568704316 356.68112071107424 1229.1646122501274 355.08373635679897Q1229.6690494146355 353.4863520025236 1229.6690494146355 351.9520222938118L1229.6690494146355 351.9520222938118Q1229.6690494146355 348.6101260789464 1227.987592199609 346.44524991459963Q1226.2851167693943 344.259355535065 1223.3215484279099 344.259355535065Z " fill="#dddddd" transform="matrix(0.7023300347598498,0,0,0.7023300347598498,0,42.33765024374098)"/></g></svg>